#tb 0: 1/25
#media_type 0: video
#codec_id 0: rawvideo
#dimensions 0: 352x288
#sar 0: 0/1
0,          0,          0,        1,   152064, 0x6af06696
0,          1,          1,        1,   152064, 0x761d5ef6
0,          2,          2,        1,   152064, 0x0448e252
0,          3,          3,        1,   152064, 0x3f0e803e
0,          4,          4,        1,   152064, 0x7bdcab20
0,          5,          5,        1,   152064, 0xc77aa9b8
0,          6,          6,        1,   152064, 0x803c73fc
0,          7,          7,        1,   152064, 0x37fa945e
0,          8,          8,        1,   152064, 0x51b877ee
0,          9,          9,        1,   152064, 0x8a4e2c91
0,         10,         10,        1,   152064, 0x6a612c5c
0,         11,         11,        1,   152064, 0x1b90ec0f
0,         12,         12,        1,   152064, 0x7739921c
0,         13,         13,        1,   152064, 0x9ec78ade
0,         14,         14,        1,   152064, 0xa2cc80e5
0,         15,         15,        1,   152064, 0x6c031f29
0,         16,         16,        1,   152064, 0xbd5a5799
0,         17,         17,        1,   152064, 0xfd3b2769
0,         18,         18,        1,   152064, 0xfe646343
0,         19,         19,        1,   152064, 0x0b30dd30
0,         20,         20,        1,   152064, 0x94c1f545
0,         21,         21,        1,   152064, 0x8e58118b
0,         22,         22,        1,   152064, 0xf60bff54
0,         23,         23,        1,   152064, 0x61dc6483
0,         24,         24,        1,   152064, 0x8950f5ac
0,         25,         25,        1,   152064, 0x3c20943d
0,         26,         26,        1,   152064, 0x3b2e859f
0,         27,         27,        1,   152064, 0xce05c82e
0,         28,         28,        1,   152064, 0x53588852
0,         29,         29,        1,   152064, 0x7a275b78
0,         30,         30,        1,   152064, 0xc6445a9e
0,         31,         31,        1,   152064, 0xa7fcac62
0,         32,         32,        1,   152064, 0x9f57ef74
0,         33,         33,        1,   152064, 0xe0848823
0,         34,         34,        1,   152064, 0x642e270f
0,         35,         35,        1,   152064, 0xcc9f8bef
0,         36,         36,        1,   152064, 0x1fe72b9a
0,         37,         37,        1,   152064, 0x59d402f7
0,         38,         38,        1,   152064, 0xfcc8565a
0,         39,         39,        1,   152064, 0x52ff2e52
0,         40,         40,        1,   152064, 0x37ee4421
0,         41,         41,        1,   152064, 0x215b8444
0,         42,         42,        1,   152064, 0x43fdbb95
0,         43,         43,        1,   152064, 0x62eeff2b
0,         44,         44,        1,   152064, 0x7032e508
0,         45,         45,        1,   152064, 0xfd7c6c09
0,         46,         46,        1,   152064, 0xbc2456c6
0,         47,         47,        1,   152064, 0x4b3abd92
0,         48,         48,        1,   152064, 0x39cb981d
0,         49,         49,        1,   152064, 0xaf0dbdd6
